<?xml version="1.0" encoding="iso-8859-1"?>
<!-- Generator: Adobe Illustrator 19.0.0, SVG Export Plug-In . SVG Version: 6.00 Build 0)  -->
<svg version="1.1" id="Capa_1" xmlns="http://www.w3.org/2000/svg" xmlns:xlink="http://www.w3.org/1999/xlink" x="0px" y="0px"
	 viewBox="0 0 512 512" style="enable-background:new 0 0 512 512;" xml:space="preserve">
<g>
	<g>
		<path d="M443.733,179.2v315.733H68.267V179.2H51.2v324.267c0,4.719,3.823,8.533,8.533,8.533h392.533
			c4.719,0,8.533-3.814,8.533-8.533V179.2H443.733z"/>
	</g>
</g>
<g>
	<g>
		<path d="M486.4,93.867H25.6c-4.71,0-8.533,3.823-8.533,8.533v76.8c0,4.71,3.823,8.533,8.533,8.533h119.467v-17.067H34.133v-59.733
			h443.733v59.733H366.933v17.067H486.4c4.719,0,8.533-3.823,8.533-8.533v-76.8C494.933,97.69,491.119,93.867,486.4,93.867z"/>
	</g>
</g>
<g>
	<g>
		<path d="M290.133,93.867h-68.267c-4.71,0-8.533,3.823-8.533,8.533v401.067c0,4.719,3.823,8.533,8.533,8.533h68.267
			c4.719,0,8.533-3.814,8.533-8.533V102.4C298.667,97.69,294.852,93.867,290.133,93.867z M281.6,494.933h-51.2v-384h51.2V494.933z"
			/>
	</g>
</g>
<g>
	<g>
		<path d="M262.042,96.375L189.5,23.578C174.481,8.585,153.728,0,132.54,0c-0.094,0-0.179,0-0.273,0
			C101.683,0,76.8,24.883,76.8,55.467c0,30.583,24.883,55.467,55.467,55.467H256c3.447,0,6.562-2.074,7.885-5.265
			C265.199,102.485,264.474,98.825,262.042,96.375z M132.267,93.867c-21.171,0-38.4-17.229-38.4-38.4s17.229-38.4,38.434-38.4
			c0.068,0,0.136,0,0.213,0c16.725,0,33.084,6.767,44.911,18.569l58.027,58.232H132.267z"/>
	</g>
</g>
<g>
	<g>
		<path d="M379.768,0c-21.333,0.068-42.18,8.516-57.276,23.586l-72.533,72.789c-2.432,2.44-3.157,6.11-1.835,9.293
			c1.314,3.191,4.429,5.265,7.876,5.265h123.733c30.583,0,55.467-24.883,55.467-55.467C435.2,24.883,410.317,0,379.768,0z
			 M379.733,93.867H276.548l58.018-58.214c11.836-11.819,28.194-18.586,44.954-18.586c21.103-0.119,38.613,17.143,38.613,38.4
			C418.133,76.638,400.905,93.867,379.733,93.867z"/>
	</g>
</g>
<g>
	<g>
		<path d="M214.366,158.08l-51.942,96.461l-9.711-19.43c-1.724-3.447-5.564-5.316-9.31-4.548l-23.97,4.796l75.665-128.632
			l-14.711-8.653L95.053,243.14c-1.707,2.893-1.553,6.528,0.401,9.267c1.946,2.739,5.308,4.07,8.627,3.422l36.275-7.253
			l14.148,28.305c1.425,2.85,4.318,4.668,7.501,4.719c0.043,0,0.085,0,0.128,0c3.14,0,6.025-1.724,7.526-4.497l59.733-110.933
			L214.366,158.08z"/>
	</g>
</g>
<g>
	<g>
		<path d="M218.948,95.983l-63.377-55.45c-4.676-4.13-10.692-6.4-16.913-6.4c-0.026,0-0.051,0-0.077,0h-2.048
			c-14.114,0-25.6,11.486-25.6,25.557c-0.043,7.927,3.499,15.3,9.66,20.164l36.181,29.184c1.519,1.229,3.405,1.894,5.359,1.894h51.2
			c3.558,0,6.741-2.202,7.987-5.53S221.628,98.321,218.948,95.983z M165.146,93.867l-33.903-27.341
			c-2.074-1.638-3.26-4.105-3.243-6.793c0-4.702,3.831-8.533,8.533-8.533h2.074c0.009,0,0.017,0,0.026,0
			c2.082,0,4.096,0.759,5.683,2.15l46.302,40.516H165.146z"/>
	</g>
</g>
<g>
	<g>
		<path d="M375.467,34.133h-2.022c-0.026,0-0.051,0-0.077,0c-6.255,0-12.262,2.27-16.922,6.383l-63.403,55.467
			c-2.671,2.338-3.618,6.093-2.372,9.421c1.254,3.328,4.437,5.53,7.996,5.53h51.2c1.954,0,3.84-0.666,5.359-1.894l36.122-29.133
			c6.212-4.915,9.762-12.288,9.719-20.173C401.067,45.619,389.581,34.133,375.467,34.133z M380.689,66.577l-33.835,27.29h-25.472
			l46.328-40.533c1.57-1.374,3.567-2.133,5.683-2.133c0.009,0,0.017,0,0.026,0h2.048c4.71,0,8.533,3.831,8.533,8.576
			C384.017,62.421,382.831,64.887,380.689,66.577z"/>
	</g>
</g>
<g>
	<g>
		<path d="M416.973,243.149L331.639,98.082l-14.72,8.653l75.665,128.631l-23.97-4.796c-3.763-0.742-7.586,1.118-9.31,4.548
			l-9.719,19.43l-51.934-96.461l-15.036,8.09l59.733,110.933c1.493,2.773,4.386,4.489,7.518,4.489c0.043,0,0.085,0,0.145,0.008
			c3.183-0.051,6.076-1.869,7.501-4.719l14.148-28.305l36.275,7.253c3.285,0.666,6.673-0.674,8.627-3.422
			C418.517,249.677,418.671,246.05,416.973,243.149z"/>
	</g>
</g>
<g>
</g>
<g>
</g>
<g>
</g>
<g>
</g>
<g>
</g>
<g>
</g>
<g>
</g>
<g>
</g>
<g>
</g>
<g>
</g>
<g>
</g>
<g>
</g>
<g>
</g>
<g>
</g>
<g>
</g>
</svg>
